<?xml version="1.0" encoding="UTF-8"?>
<svg xmlns="http://www.w3.org/2000/svg" xmlns:xlink="http://www.w3.org/1999/xlink" viewBox="0 0 16 16" width="16px" height="16px">
<g id="surface21076369">
<path style=" stroke:none;fill-rule:nonzero;fill:rgb(45.882353%,45.882353%,45.882353%);fill-opacity:1;" d="M 8 1.332031 C 4.324219 1.332031 1.332031 4.324219 1.332031 8 C 1.332031 11.675781 4.324219 14.667969 8 14.667969 C 11.675781 14.667969 14.667969 11.675781 14.667969 8 C 14.667969 4.324219 11.675781 1.332031 8 1.332031 Z M 8 2.667969 C 10.953125 2.667969 13.332031 5.046875 13.332031 8 C 13.332031 10.953125 10.953125 13.332031 8 13.332031 C 5.046875 13.332031 2.667969 10.953125 2.667969 8 C 2.667969 5.046875 5.046875 2.667969 8 2.667969 Z M 5.804688 4.863281 L 4.863281 5.804688 L 7.058594 8 L 4.863281 10.195312 L 5.804688 11.136719 L 8 8.941406 L 10.195312 11.136719 L 11.136719 10.195312 L 8.941406 8 L 11.136719 5.804688 L 10.195312 4.863281 L 8 7.058594 Z M 5.804688 4.863281 "/>
</g>
</svg>
